<svg width="10" height="16" viewBox="0 0 10 16" fill="none" xmlns="http://www.w3.org/2000/svg">
<g clip-path="url(#clip0_946_9684)">
<path d="M5.70624 1.2937C5.31561 0.903076 4.68124 0.903076 4.29061 1.2937L0.290614 5.2937C0.00311416 5.5812 -0.0812609 6.00933 0.0749891 6.38433C0.231239 6.75933 0.593739 7.00308 0.999989 7.00308H8.99999C9.40311 7.00308 9.76874 6.75933 9.92499 6.38433C10.0812 6.00933 9.99374 5.5812 9.70936 5.2937L5.70936 1.2937H5.70624Z" fill="black"/>
<path d="M5.70868 14.7095C5.31806 15.1001 4.68368 15.1001 4.29306 14.7095L0.293056 10.7095C0.00555557 10.422 -0.0788194 9.99385 0.0774306 9.61885C0.233681 9.24385 0.596181 9.0001 1.00243 9.0001H9.00243C9.40556 9.0001 9.77118 9.24385 9.92743 9.61885C10.0837 9.99385 9.99618 10.422 9.71181 10.7095L5.71181 14.7095H5.70868Z" fill="#FF0000" fill-opacity="0.9"/>
</g>
<defs>
<clipPath id="clip0_946_9684">
<rect width="10" height="16" fill="white"/>
</clipPath>
</defs>
</svg>
