<svg width="37" height="38" viewBox="0 0 37 38" fill="none" xmlns="http://www.w3.org/2000/svg">
<path d="M16.1875 9.74988C16.1875 9.42845 16.1875 9.26657 16.206 9.13245C16.2652 8.70934 16.4607 8.31704 16.7628 8.01495C17.0648 7.71285 17.4571 7.51741 17.8803 7.4582C18.0167 7.4397 18.1763 7.4397 18.4977 7.4397C18.8191 7.4397 18.9833 7.4397 19.1151 7.4582C19.5382 7.51741 19.9305 7.71285 20.2326 8.01495C20.5347 8.31704 20.7302 8.70934 20.7894 9.13245C20.8079 9.26657 20.8079 9.42845 20.8079 9.74988C20.8079 10.0713 20.8079 10.2332 20.7894 10.3673C20.7302 10.7904 20.5347 11.1827 20.2326 11.4848C19.9305 11.7869 19.5382 11.9824 19.1151 12.0416C18.981 12.0601 18.8191 12.0601 18.4977 12.0601C18.1763 12.0601 18.0144 12.0601 17.8803 12.0416C17.4571 11.9824 17.0648 11.7869 16.7628 11.4848C16.4607 11.1827 16.2652 10.7904 16.206 10.3673C16.1875 10.2332 16.1875 10.0713 16.1875 9.74988ZM16.1875 18.9999C16.1875 18.6784 16.1875 18.5166 16.206 18.3824C16.2652 17.9593 16.4607 17.567 16.7628 17.2649C17.0648 16.9628 17.4571 16.7674 17.8803 16.7082C18.0167 16.6897 18.1763 16.6897 18.4977 16.6897C18.8191 16.6897 18.9833 16.6897 19.1151 16.7082C19.5382 16.7674 19.9305 16.9628 20.2326 17.2649C20.5347 17.567 20.7302 17.9593 20.7894 18.3824C20.8079 18.5166 20.8079 18.6784 20.8079 18.9999C20.8079 19.3213 20.8079 19.4832 20.7894 19.6173C20.7302 20.0404 20.5347 20.4327 20.2326 20.7348C19.9305 21.0369 19.5382 21.2324 19.1151 21.2916C18.981 21.3101 18.8191 21.3101 18.4977 21.3101C18.1763 21.3101 18.0144 21.3101 17.8803 21.2916C17.4571 21.2324 17.0648 21.0369 16.7628 20.7348C16.4607 20.4327 16.2652 20.0404 16.206 19.6173C16.1875 19.4832 16.1875 19.3213 16.1875 18.9999ZM16.1875 28.2499C16.1875 27.9284 16.1875 27.7666 16.206 27.6324C16.2652 27.2093 16.4607 26.817 16.7628 26.5149C17.0648 26.2128 17.4571 26.0174 17.8803 25.9582C18.0167 25.9397 18.1763 25.9397 18.4977 25.9397C18.8191 25.9397 18.9833 25.9397 19.1151 25.9582C19.5382 26.0174 19.9305 26.2128 20.2326 26.5149C20.5347 26.817 20.7302 27.2093 20.7894 27.6324C20.8079 27.7666 20.8079 27.9284 20.8079 28.2499C20.8079 28.5713 20.8079 28.7332 20.7894 28.8696C20.7302 29.2927 20.5347 29.685 20.2326 29.9871C19.9305 30.2892 19.5382 30.4847 19.1151 30.5439C18.981 30.5624 18.8191 30.5624 18.5 30.5624C18.1809 30.5624 18.0167 30.5624 17.8826 30.5439C17.4595 30.4847 17.0672 30.2892 16.7651 29.9871C16.463 29.685 16.2675 29.2927 16.2083 28.8696C16.1875 28.7355 16.1875 28.5736 16.1875 28.2499Z" fill="black"/>
</svg>
